{
  "accessors": [
    {
      "bufferView": 0,
      "componentType": 5125,
      "count": 55320,
      "type": "SCALAR"
    },
    {
      "bufferView": 1,
      "componentType": 5126,
      "count": 10199,
      "max": [
        0.114829421043396,
        0.0984259992837906,
        0.213254690170288
      ],
      "min": [
        -0.114829406142235,
        -0.453145980834961,
        -0.0164042077958584
      ],
      "type": "VEC3"
    },
    {
      "bufferView": 2,
      "componentType": 5126,
      "count": 10199,
      "type": "VEC3"
    },
    {
      "bufferView": 3,
      "componentType": 5126,
      "count": 10199,
      "type": "VEC4"
    },
    {
      "bufferView": 4,
      "componentType": 5126,
      "count": 10199,
      "type": "VEC2"
    },
    {
      "bufferView": 5,
      "componentType": 5125,
      "count": 744,
      "type": "SCALAR"
    },
    {
      "bufferView": 6,
      "componentType": 5126,
      "count": 346,
      "max": [
        -0.0301473438739777,
        0.211747616529465,
        0.180721700191498
      ],
      "min": [
        -0.199429631233215,
        0.131008148193359,
        0.10590885579586
      ],
      "type": "VEC3"
    },
    {
      "bufferView": 7,
      "componentType": 5126,
      "count": 346,
      "type": "VEC3"
    },
    {
      "bufferView": 8,
      "componentType": 5126,
      "count": 346,
      "type": "VEC4"
    },
    {
      "bufferView": 9,
      "componentType": 5126,
      "count": 346,
      "type": "VEC2"
    },
    {
      "bufferView": 10,
      "componentType": 5125,
      "count": 744,
      "type": "SCALAR"
    },
    {
      "bufferView": 11,
      "componentType": 5126,
      "count": 346,
      "max": [
        -0.0301473736763,
        0.211747646331787,
        0.180721670389175
      ],
      "min": [
        -0.199429661035538,
        0.131008163094521,
        0.105908840894699
      ],
      "type": "VEC3"
    },
    {
      "bufferView": 12,
      "componentType": 5126,
      "count": 346,
      "type": "VEC3"
    },
    {
      "bufferView": 13,
      "componentType": 5126,
      "count": 346,
      "type": "VEC4"
    },
    {
      "bufferView": 14,
      "componentType": 5126,
      "count": 346,
      "type": "VEC2"
    }
  ],
  "asset": {
    "generator": "Adobe Substance 3D Painter 10.0.0",
    "version": "2.0"
  },
  "bufferViews": [
    {
      "buffer": 0,
      "byteLength": 221280,
      "target": 34963
    },
    {
      "buffer": 0,
      "byteLength": 122388,
      "byteOffset": 221280,
      "target": 34962
    },
    {
      "buffer": 0,
      "byteLength": 122388,
      "byteOffset": 343668,
      "target": 34962
    },
    {
      "buffer": 0,
      "byteLength": 163184,
      "byteOffset": 466056,
      "target": 34962
    },
    {
      "buffer": 0,
      "byteLength": 81592,
      "byteOffset": 629240,
      "target": 34962
    },
    {
      "buffer": 0,
      "byteLength": 2976,
      "byteOffset": 710832,
      "target": 34963
    },
    {
      "buffer": 0,
      "byteLength": 4152,
      "byteOffset": 713808,
      "target": 34962
    },
    {
      "buffer": 0,
      "byteLength": 4152,
      "byteOffset": 717960,
      "target": 34962
    },
    {
      "buffer": 0,
      "byteLength": 5536,
      "byteOffset": 722112,
      "target": 34962
    },
    {
      "buffer": 0,
      "byteLength": 2768,
      "byteOffset": 727648,
      "target": 34962
    },
    {
      "buffer": 0,
      "byteLength": 2976,
      "byteOffset": 730416,
      "target": 34963
    },
    {
      "buffer": 0,
      "byteLength": 4152,
      "byteOffset": 733392,
      "target": 34962
    },
    {
      "buffer": 0,
      "byteLength": 4152,
      "byteOffset": 737544,
      "target": 34962
    },
    {
      "buffer": 0,
      "byteLength": 5536,
      "byteOffset": 741696,
      "target": 34962
    },
    {
      "buffer": 0,
      "byteLength": 2768,
      "byteOffset": 747232,
      "target": 34962
    }
  ],
  "buffers": [
    {
      "byteLength": 750000,
      "uri": "double coupler.bin"
    }
  ],
  "images": [
    {
      "uri": "Material _25_baseColor.png"
    },
    {
      "uri": "Material _25_occlusionRoughnessMetallic.png"
    },
    {
      "uri": "Material _25_normal.png"
    },
    {
      "uri": "Material _25_emissive.png"
    }
  ],
  "materials": [
    {
      "alphaMode": "BLEND",
      "emissiveFactor": [
        1.0,
        1.0,
        1.0
      ],
      "emissiveTexture": {
        "index": 3
      },
      "name": "Material _25",
      "normalTexture": {
        "index": 2
      },
      "occlusionTexture": {
        "index": 1
      },
      "pbrMetallicRoughness": {
        "baseColorTexture": {
          "index": 0
        },
        "metallicRoughnessTexture": {
          "index": 1
        }
      }
    }
  ],
  "meshes": [
    {
      "name": "Box001",
      "primitives": [
        {
          "attributes": {
            "NORMAL": 2,
            "POSITION": 1,
            "TANGENT": 3,
            "TEXCOORD_0": 4
          },
          "indices": 0,
          "material": 0,
          "mode": 4
        }
      ]
    },
    {
      "name": "objct1",
      "primitives": [
        {
          "attributes": {
            "NORMAL": 7,
            "POSITION": 6,
            "TANGENT": 8,
            "TEXCOORD_0": 9
          },
          "indices": 5,
          "material": 0,
          "mode": 4
        }
      ]
    },
    {
      "name": "objct002",
      "primitives": [
        {
          "attributes": {
            "NORMAL": 12,
            "POSITION": 11,
            "TANGENT": 13,
            "TEXCOORD_0": 14
          },
          "indices": 10,
          "material": 0,
          "mode": 4
        }
      ]
    }
  ],
  "nodes": [
    {
      "children": [
        1,
        3,
        5
      ],
      "name": "RootNode",
      "scale": [
        0.304800003767014,
        0.304800003767014,
        0.304800003767014
      ]
    },
    {
      "children": [
        2
      ],
      "name": "Box001",
      "rotation": [
        2.1855694143369e-08,
        0.0,
        0.0,
        1.0
      ],
      "translation": [
        7.45058059692383e-09,
        0.0549092926084995,
        -0.207466244697571
      ]
    },
    {
      "mesh": 0,
      "name": "Box001"
    },
    {
      "children": [
        4
      ],
      "name": "objct1",
      "rotation": [
        -0.00339358788914979,
        0.707098603248596,
        -0.00339387287385762,
        0.707098662853241
      ],
      "scale": [
        2.40758204460144,
        1.25036299228668,
        1.0
      ],
      "translation": [
        -0.133931159973145,
        -0.132330238819122,
        -0.503031075000763
      ]
    },
    {
      "mesh": 1,
      "name": "objct1"
    },
    {
      "children": [
        6
      ],
      "name": "objct002",
      "rotation": [
        0.999988496303558,
        -0.0047994595952332,
        1.20247307222598e-07,
        -2.17132523516739e-07
      ],
      "scale": [
        2.40758204460144,
        1.25036299228668,
        1.0
      ],
      "translation": [
        0.43680614233017,
        -0.113129287958145,
        0.0285716541111469
      ]
    },
    {
      "mesh": 2,
      "name": "objct002"
    }
  ],
  "samplers": [
    {
      "magFilter": 9729,
      "minFilter": 9985,
      "wrapS": 10497,
      "wrapT": 10497
    }
  ],
  "scene": 0,
  "scenes": [
    {
      "name": "Scene",
      "nodes": [
        0
      ]
    }
  ],
  "textures": [
    {
      "sampler": 0,
      "source": 0
    },
    {
      "sampler": 0,
      "source": 1
    },
    {
      "sampler": 0,
      "source": 2
    },
    {
      "sampler": 0,
      "source": 3
    }
  ]
}